<?xml version="1.0" standalone="no"?>
<!DOCTYPE svg PUBLIC "-//W3C//DTD SVG 20010904//EN"
 "http://www.w3.org/TR/2001/REC-SVG-20010904/DTD/svg10.dtd">
<svg version="1.0" xmlns="http://www.w3.org/2000/svg"
 width="260.000000pt" height="260.000000pt" viewBox="0 0 260.000000 260.000000"
 preserveAspectRatio="xMidYMid meet">
<metadata>
Created by potrace 1.11, written by Peter Selinger 2001-2013
</metadata>
<g transform="translate(0.000000,260.000000) scale(0.100000,-0.100000)"
fill="#000000" stroke="none">
<path d="M1110 2429 c-318 -81 -581 -334 -700 -672 -57 -164 -74 -273 -74
-482 -1 -205 5 -275 35 -402 66 -281 211 -494 425 -626 127 -79 295 -129 438
-131 l70 -1 0 97 c1 54 -2 98 -6 98 -5 0 -10 0 -13 0 -3 0 -22 7 -42 15 -48
20 -79 50 -106 100 -22 40 -22 43 -25 818 -3 839 -2 847 50 922 23 35 73 68
118 78 25 6 25 7 24 104 l-1 98 -62 0 c-35 1 -94 -7 -131 -16z"/>
<path d="M1439 2446 c-1 0 -3 -45 -5 -98 l-3 -97 54 -15 c163 -48 322 -241
400 -487 52 -164 65 -190 102 -205 28 -12 38 -12 68 0 62 26 63 36 63 461 0
358 -1 381 -19 407 -40 56 -120 45 -158 -23 -42 -73 -68 -75 -245 -15 -108 37
-252 77 -257 72z"/>
<path d="M1992 800 c-14 -6 -32 -31 -48 -67 -58 -131 -78 -166 -125 -222 -27
-33 -75 -76 -106 -97 -64 -43 -185 -92 -233 -96 -17 -1 -34 -7 -37 -12 -5 -7
-7 -93 -4 -180 1 -16 7 -18 59 -11 88 10 212 57 290 109 39 26 104 82 144 126
180 194 241 399 133 448 -30 14 -42 14 -73 2z"/>
</g>
</svg>
